<?xml version="1.0" encoding="UTF-8" standalone="no"?>
<svg
   xmlns:dc="http://purl.org/dc/elements/1.1/"
   xmlns:cc="http://creativecommons.org/ns#"
   xmlns:rdf="http://www.w3.org/1999/02/22-rdf-syntax-ns#"
   xmlns:svg="http://www.w3.org/2000/svg"
   xmlns="http://www.w3.org/2000/svg"
   xmlns:sodipodi="http://sodipodi.sourceforge.net/DTD/sodipodi-0.dtd"
   xmlns:inkscape="http://www.inkscape.org/namespaces/inkscape"
   version="1.1"
   id="svg2"
   xml:space="preserve"
   width="666.66669"
   height="666.66669"
   viewBox="0 0 666.66669 666.66669"
   sodipodi:docname="3793094.ai"><metadata
     id="metadata8"><rdf:RDF><cc:Work
         rdf:about=""><dc:format>image/svg+xml</dc:format><dc:type
           rdf:resource="http://purl.org/dc/dcmitype/StillImage" /></cc:Work></rdf:RDF></metadata><defs
     id="defs6"><clipPath
       clipPathUnits="userSpaceOnUse"
       id="clipPath18"><path
         d="M 0,500 H 500 V 0 H 0 Z"
         id="path16" /></clipPath><clipPath
       clipPathUnits="userSpaceOnUse"
       id="clipPath78"><path
         d="M 0,500 H 500 V 0 H 0 Z"
         id="path76" /></clipPath><clipPath
       clipPathUnits="userSpaceOnUse"
       id="clipPath90"><path
         d="M 98.1216,401.5 H 333.345 V 152.899 H 98.1216 Z"
         id="path88" /></clipPath><clipPath
       clipPathUnits="userSpaceOnUse"
       id="clipPath110"><path
         d="M 0,500 H 500 V 0 H 0 Z"
         id="path108" /></clipPath><clipPath
       clipPathUnits="userSpaceOnUse"
       id="clipPath126"><path
         d="M 0,500 H 500 V 0 H 0 Z"
         id="path124" /></clipPath><clipPath
       clipPathUnits="userSpaceOnUse"
       id="clipPath134"><path
         d="M 71.6427,432.36 H 424.173 V 89.7733 H 71.6427 Z"
         id="path132" /></clipPath><clipPath
       clipPathUnits="userSpaceOnUse"
       id="clipPath178"><path
         d="m 119.323,405.549 h 43.82 v -43.82 h -43.82 z"
         id="path176" /></clipPath><clipPath
       clipPathUnits="userSpaceOnUse"
       id="clipPath194"><path
         d="m 119.326,400.17 h 36.271 v -38.436 h -36.271 z"
         id="path192" /></clipPath><clipPath
       clipPathUnits="userSpaceOnUse"
       id="clipPath210"><path
         d="m 127.499,396.38 h 4.005 v -4.006 h -4.005 z"
         id="path208" /></clipPath><clipPath
       clipPathUnits="userSpaceOnUse"
       id="clipPath226"><path
         d="m 151.058,398.383 h 4.006 v -4.006 h -4.006 z"
         id="path224" /></clipPath><clipPath
       clipPathUnits="userSpaceOnUse"
       id="clipPath242"><path
         d="m 144.503,385.377 h 6.555 v -6.556 h -6.555 z"
         id="path240" /></clipPath><clipPath
       clipPathUnits="userSpaceOnUse"
       id="clipPath258"><path
         d="m 131.88,377.135 h 8.762 v -8.762 h -8.762 z"
         id="path256" /></clipPath><clipPath
       clipPathUnits="userSpaceOnUse"
       id="clipPath278"><path
         d="m 362.971,142.977 h 38.452 v -38.452 h -38.452 z"
         id="path276" /></clipPath><clipPath
       clipPathUnits="userSpaceOnUse"
       id="clipPath294"><path
         d="m 369.566,139.473 h 31.857 v -34.949 h -31.857 z"
         id="path292" /></clipPath><clipPath
       clipPathUnits="userSpaceOnUse"
       id="clipPath314"><path
         d="M 0,500 H 500 V 0 H 0 Z"
         id="path312" /></clipPath><clipPath
       clipPathUnits="userSpaceOnUse"
       id="clipPath322"><path
         d="m 320.737,312.17 h 73.36 v -99.81 h -73.36 z"
         id="path320" /></clipPath><clipPath
       clipPathUnits="userSpaceOnUse"
       id="clipPath342"><path
         d="M 207.86,380.377 H 423.199 V 131.733 H 207.86 Z"
         id="path340" /></clipPath><clipPath
       clipPathUnits="userSpaceOnUse"
       id="clipPath362"><path
         d="m 312.758,403.056 h 25.884 v -36.397 h -25.884 z"
         id="path360" /></clipPath><clipPath
       clipPathUnits="userSpaceOnUse"
       id="clipPath382"><path
         d="m 311.444,370.091 h 34.62 v -72.006 h -34.62 z"
         id="path380" /></clipPath><clipPath
       clipPathUnits="userSpaceOnUse"
       id="clipPath398"><path
         d="m 332.647,317.082 h 9.787 v -8.98 h -9.787 z"
         id="path396" /></clipPath><clipPath
       clipPathUnits="userSpaceOnUse"
       id="clipPath414"><path
         d="m 343.939,312.01 h 2.124 v -5.52 h -2.124 z"
         id="path412" /></clipPath><clipPath
       clipPathUnits="userSpaceOnUse"
       id="clipPath434"><path
         d="m 275.552,398.886 h 34.165 v -19.669 h -34.165 z"
         id="path432" /></clipPath><clipPath
       clipPathUnits="userSpaceOnUse"
       id="clipPath454"><path
         d="m 272.044,401.235 h 8.953 v -8.717 h -8.953 z"
         id="path452" /></clipPath><clipPath
       clipPathUnits="userSpaceOnUse"
       id="clipPath474"><path
         d="m 300.305,404.889 h 33.256 v -41.235 h -33.256 z"
         id="path472" /></clipPath><clipPath
       clipPathUnits="userSpaceOnUse"
       id="clipPath490"><path
         d="m 321.909,395.258 h 7.029 v -7.733 h -7.029 z"
         id="path488" /></clipPath><clipPath
       clipPathUnits="userSpaceOnUse"
       id="clipPath510"><path
         d="m 298.544,419.572 h 20.032 v -21.003 h -20.032 z"
         id="path508" /></clipPath><clipPath
       clipPathUnits="userSpaceOnUse"
       id="clipPath534"><path
         d="M 318.398,372.801 H 377.39 V 320.26 h -58.992 z"
         id="path532" /></clipPath><clipPath
       clipPathUnits="userSpaceOnUse"
       id="clipPath550"><path
         d="m 365.727,338.007 h 3.973 v -11.585 h -3.973 z"
         id="path548" /></clipPath><clipPath
       clipPathUnits="userSpaceOnUse"
       id="clipPath566"><path
         d="m 373.312,336.857 h 3.659 v -4.04 h -3.659 z"
         id="path564" /></clipPath><clipPath
       clipPathUnits="userSpaceOnUse"
       id="clipPath590"><path
         d="m 310.95,373.978 h 23.294 V 362.684 H 310.95 Z"
         id="path588" /></clipPath><clipPath
       clipPathUnits="userSpaceOnUse"
       id="clipPath610"><path
         d="m 314.205,405.971 h 33.277 v -30.226 h -33.277 z"
         id="path608" /></clipPath><clipPath
       clipPathUnits="userSpaceOnUse"
       id="clipPath630"><path
         d="m 341.369,379.87 h 8.487 v -8.816 h -8.487 z"
         id="path628" /></clipPath><clipPath
       clipPathUnits="userSpaceOnUse"
       id="clipPath646"><path
         d="m 308.532,393.943 h 13.933 V 375.75 h -13.933 z"
         id="path644" /></clipPath><clipPath
       clipPathUnits="userSpaceOnUse"
       id="clipPath666"><path
         d="m 305.949,388.607 h 5.16 v -5.16 h -5.16 z"
         id="path664" /></clipPath><clipPath
       clipPathUnits="userSpaceOnUse"
       id="clipPath682"><path
         d="m 311.258,389.82 h 1.691 v -1.691 h -1.691 z"
         id="path680" /></clipPath><clipPath
       clipPathUnits="userSpaceOnUse"
       id="clipPath698"><path
         d="m 313.49,390.689 h 1.691 v -1.691 h -1.691 z"
         id="path696" /></clipPath><clipPath
       clipPathUnits="userSpaceOnUse"
       id="clipPath714"><path
         d="m 308.485,383.632 h 9.806 v -5.473 h -9.806 z"
         id="path712" /></clipPath><clipPath
       clipPathUnits="userSpaceOnUse"
       id="clipPath730"><path
         d="M 0,500 H 500 V 0 H 0 Z"
         id="path728" /></clipPath><clipPath
       clipPathUnits="userSpaceOnUse"
       id="clipPath738"><path
         d="m 217.057,255.72 h 69.41 v -67.89 h -69.41 z"
         id="path736" /></clipPath><clipPath
       clipPathUnits="userSpaceOnUse"
       id="clipPath766"><path
         d="m 148.49,276.11 h 132 v -132 h -132 z"
         id="path764" /></clipPath><clipPath
       clipPathUnits="userSpaceOnUse"
       id="clipPath790"><path
         d="m 159.564,208.628 h 53.445 v -53.444 h -53.445 z"
         id="path788" /></clipPath><clipPath
       clipPathUnits="userSpaceOnUse"
       id="clipPath810"><path
         d="M 96.2349,162.384 H 166.804 V 96.3086 H 96.2349 Z"
         id="path808" /></clipPath></defs><sodipodi:namedview
     pagecolor="#ffffff"
     bordercolor="#666666"
     borderopacity="1"
     objecttolerance="10"
     gridtolerance="10"
     guidetolerance="10"
     inkscape:pageopacity="0"
     inkscape:pageshadow="2"
     inkscape:window-width="640"
     inkscape:window-height="480"
     id="namedview4" /><g
     id="g10"
     inkscape:groupmode="layer"
     inkscape:label="3793094"
     transform="matrix(1.3333333,0,0,-1.3333333,0,666.66667)"><g
       id="g12"><g
         id="g14"
         clip-path="url(#clipPath18)"><g
           id="g20"
           transform="translate(45.3022,444.7979)"><path
             d="m 0,0 c -3.01,0 -5.458,-2.449 -5.458,-5.458 v -378.68 c 0,-3.009 2.448,-5.458 5.458,-5.458 h 193.099 c 3.008,0 5.457,2.449 5.457,5.458 v 378.68 c 0,3.009 -2.449,5.458 -5.457,5.458 z M 193.099,-389.846 H 0 c -3.147,0 -5.708,2.561 -5.708,5.708 v 378.68 c 0,3.146 2.561,5.708 5.708,5.708 h 193.099 c 3.146,0 5.707,-2.562 5.707,-5.708 v -378.68 c 0,-3.147 -2.561,-5.708 -5.707,-5.708"
             style="fill:#ececec;fill-opacity:1;fill-rule:nonzero;stroke:none"
             id="path22" /></g><g
           id="g24"
           transform="translate(261.5991,444.7979)"><path
             d="m 0,0 c -3.009,0 -5.457,-2.449 -5.457,-5.458 v -378.68 c 0,-3.009 2.448,-5.458 5.457,-5.458 h 193.099 c 3.009,0 5.458,2.449 5.458,5.458 v 378.68 c 0,3.009 -2.449,5.458 -5.458,5.458 z M 193.099,-389.846 H 0 c -3.146,0 -5.707,2.561 -5.707,5.708 v 378.68 c 0,3.146 2.561,5.708 5.707,5.708 h 193.099 c 3.147,0 5.708,-2.562 5.708,-5.708 v -378.68 c 0,-3.147 -2.561,-5.708 -5.708,-5.708"
             style="fill:#ececec;fill-opacity:1;fill-rule:nonzero;stroke:none"
             id="path26" /></g><g
           id="g28"
           transform="translate(113.054,331.7529)"><path
             d="m 0,0 1.617,-3.276 3.616,-0.526 -2.617,-2.55 0.618,-3.601 -3.234,1.7 -3.234,-1.7 0.618,3.601 -2.617,2.55 3.616,0.526 z"
             style="fill:#ececec;fill-opacity:1;fill-rule:nonzero;stroke:none"
             id="path30" /></g><g
           id="g32"
           transform="translate(436.7046,177.5166)"><path
             d="m 0,0 1.617,-3.276 3.616,-0.526 -2.617,-2.55 0.618,-3.601 -3.234,1.7 -3.234,-1.7 0.618,3.601 -2.616,2.55 3.615,0.526 z"
             style="fill:#f5f5f5;fill-opacity:1;fill-rule:nonzero;stroke:none"
             id="path34" /></g><g
           id="g36"
           transform="translate(372.5991,82.4346)"><path
             d="m 0,0 1.617,-3.276 3.616,-0.526 -2.617,-2.551 0.618,-3.6 -3.234,1.7 -3.234,-1.7 0.618,3.6 -2.617,2.551 3.616,0.526 z"
             style="fill:#f5f5f5;fill-opacity:1;fill-rule:nonzero;stroke:none"
             id="path38" /></g><g
           id="g40"
           transform="translate(225.9446,389.8457)"><path
             d="M 0,0 0.6,-1.216 1.942,-1.411 C 2.277,-1.46 2.411,-1.871 2.169,-2.107 L 1.198,-3.054 1.427,-4.391 C 1.484,-4.725 1.134,-4.979 0.834,-4.821 l -1.2,0.631 -1.201,-0.631 c -0.299,-0.158 -0.65,0.096 -0.592,0.43 l 0.229,1.337 -0.971,0.947 c -0.243,0.236 -0.109,0.647 0.226,0.696 L -1.333,-1.216 -0.732,0 C -0.583,0.304 -0.15,0.304 0,0"
             style="fill:#ececec;fill-opacity:1;fill-rule:nonzero;stroke:none"
             id="path42" /></g><g
           id="g44"
           transform="translate(60.7766,97.9922)"><path
             d="M 0,0 0.6,-1.216 1.942,-1.411 C 2.278,-1.46 2.411,-1.871 2.169,-2.107 L 1.198,-3.055 1.427,-4.391 C 1.484,-4.725 1.134,-4.979 0.834,-4.821 l -1.2,0.631 -1.201,-0.631 c -0.299,-0.158 -0.649,0.096 -0.592,0.43 l 0.229,1.336 -0.971,0.948 c -0.242,0.236 -0.109,0.647 0.226,0.696 L -1.333,-1.216 -0.732,0 C -0.583,0.304 -0.15,0.304 0,0"
             style="fill:#f5f5f5;fill-opacity:1;fill-rule:nonzero;stroke:none"
             id="path46" /></g><g
           id="g48"
           transform="translate(87.7549,402.6992)"><path
             d="M 0,0 0.6,-1.217 1.942,-1.411 C 2.277,-1.46 2.411,-1.872 2.169,-2.108 L 1.198,-3.055 1.427,-4.392 C 1.484,-4.725 1.134,-4.979 0.834,-4.822 l -1.2,0.632 -1.201,-0.632 c -0.299,-0.157 -0.65,0.097 -0.592,0.43 l 0.229,1.337 -0.971,0.947 c -0.243,0.236 -0.109,0.648 0.226,0.697 l 1.342,0.194 0.6,1.217 C -0.583,0.304 -0.15,0.304 0,0"
             style="fill:#ececec;fill-opacity:1;fill-rule:nonzero;stroke:none"
             id="path50" /></g><g
           id="g52"
           transform="translate(86.1306,161.6807)"><path
             d="m 0,0 c 0,-0.732 -0.594,-1.327 -1.327,-1.327 -0.733,0 -1.328,0.595 -1.328,1.327 0,0.733 0.595,1.327 1.328,1.327 C -0.594,1.327 0,0.733 0,0"
             style="fill:#ececec;fill-opacity:1;fill-rule:nonzero;stroke:none"
             id="path54" /></g><g
           id="g56"
           transform="translate(275.6711,328.1055)"><path
             d="m 0,0 c 0,-0.732 -0.594,-1.327 -1.327,-1.327 -0.733,0 -1.328,0.595 -1.328,1.327 0,0.733 0.595,1.327 1.328,1.327 C -0.594,1.327 0,0.733 0,0"
             style="fill:#ececec;fill-opacity:1;fill-rule:nonzero;stroke:none"
             id="path58" /></g><g
           id="g60"
           transform="translate(206.7068,401.5996)"><path
             d="m 0,0 c 0,-0.733 -0.594,-1.327 -1.327,-1.327 -0.733,0 -1.328,0.594 -1.328,1.327 0,0.732 0.595,1.327 1.328,1.327 C -0.594,1.327 0,0.732 0,0"
             style="fill:#f5f5f5;fill-opacity:1;fill-rule:nonzero;stroke:none"
             id="path62" /></g><g
           id="g64"
           transform="translate(214.49,84.623)"><path
             d="m 0,0 c 0,4.058 -3.29,7.348 -7.348,7.348 -4.058,0 -7.347,-3.29 -7.347,-7.348 0,-4.059 3.289,-7.348 7.347,-7.348 C -3.29,-7.348 0,-4.059 0,0"
             style="fill:#f0f0f0;fill-opacity:1;fill-rule:nonzero;stroke:none"
             id="path66" /></g><g
           id="g68"
           transform="translate(204.5972,88.9102)"><path
             d="m 0,0 c -1.56,0 -3.01,-0.5 -4.19,-1.36 -0.39,-0.901 -0.61,-1.89 -0.61,-2.93 0,-4.06 3.29,-7.34 7.35,-7.34 1.37,0 2.66,0.38 3.76,1.039 -0.01,0.011 -0.01,0.011 0,0.011 0.55,1.02 0.86,2.18 0.86,3.42 C 7.17,-3.21 3.96,0 0,0"
             style="fill:#e7e7e7;fill-opacity:1;fill-rule:nonzero;stroke:none"
             id="path70" /></g></g></g><g
       id="g72"><g
         id="g74"
         clip-path="url(#clipPath78)"><g
           id="g80"
           transform="translate(104.6948,354.124)"><path
             d="m 0,0 c -15.325,-40.813 -2.099,-95.899 21.577,-138.996 60.957,-111.9 209.435,-48.626 206.875,2.187 3.486,48.488 -40.113,62.884 -54.905,90.069 C 90.725,106.669 12.328,34.405 0,0"
             style="fill:#007cff;fill-opacity:1;fill-rule:nonzero;stroke:none"
             id="path82" /></g><g
           id="g84"><g
             id="g86" /><g
             id="g98"><g
               clip-path="url(#clipPath90)"
               opacity="0.899994"
               id="g96"><g
                 transform="translate(104.6948,354.124)"
                 id="g94"><path
                   d="m 0,0 c -15.325,-40.813 -2.099,-95.899 21.577,-138.996 60.957,-111.9 209.435,-48.626 206.875,2.187 3.486,48.488 -40.113,62.884 -54.905,90.069 C 90.725,106.669 12.328,34.405 0,0"
                   style="fill:#ffffff;fill-opacity:1;fill-rule:nonzero;stroke:none"
                   id="path92" /></g></g></g></g></g></g><g
       id="g100"
       transform="translate(147.6802,238.2725)"><path
         d="M 0,0 V 37.837 L -32.156,0 Z M 0,-25.917 H -60.855 V 1.558 L 0,73.895 H 29.115 V 0 H 44.206 V -25.917 H 29.115 V -48.39 H 0 Z"
         style="fill:#007cff;fill-opacity:1;fill-rule:nonzero;stroke:none"
         id="path102" /></g><g
       id="g104"><g
         id="g106"
         clip-path="url(#clipPath110)"><g
           id="g112"
           transform="translate(235.4355,250.4102)"><path
             d="m 0,0 c 0,-15.31 1.353,-25.767 4.059,-31.371 2.707,-5.605 6.63,-8.406 11.769,-8.406 3.39,0 6.329,1.188 8.817,3.568 2.487,2.378 4.318,6.136 5.496,11.276 1.175,5.139 1.762,13.15 1.762,24.031 0,15.965 -1.353,26.695 -4.059,32.19 -2.707,5.495 -6.766,8.243 -12.179,8.243 -5.523,0 -9.514,-2.803 -11.975,-8.407 C 1.23,25.519 0,15.145 0,0 m -33.134,0.082 c 0,22.854 4.113,38.846 12.343,47.978 8.229,9.131 20.762,13.697 37.604,13.697 8.091,0 14.734,-0.999 19.929,-2.993 5.194,-1.997 9.432,-4.593 12.713,-7.792 3.28,-3.199 5.864,-6.562 7.75,-10.088 1.886,-3.527 3.404,-7.641 4.552,-12.344 2.241,-8.968 3.362,-18.316 3.362,-28.049 0,-21.815 -3.691,-37.781 -11.072,-47.896 -7.381,-10.116 -20.094,-15.172 -38.136,-15.172 -10.116,0 -18.29,1.613 -24.523,4.839 -6.233,3.225 -11.346,7.955 -15.336,14.188 -2.9,4.429 -5.155,10.485 -6.766,18.166 -1.614,7.682 -2.42,16.17 -2.42,25.466"
             style="fill:#007cff;fill-opacity:1;fill-rule:nonzero;stroke:none"
             id="path114" /></g><g
           id="g116"
           transform="translate(371.7437,238.2725)"><path
             d="M 0,0 V 37.837 L -32.156,0 Z M 0,-25.917 H -60.855 V 1.558 L 0,73.895 H 29.115 V 0 H 44.206 V -25.917 H 29.115 V -48.39 H 0 Z"
             style="fill:#007cff;fill-opacity:1;fill-rule:nonzero;stroke:none"
             id="path118" /></g></g></g><g
       id="g120"><g
         id="g122"
         clip-path="url(#clipPath126)"><g
           id="g128"><g
             id="g130" /><g
             id="g166"><g
               clip-path="url(#clipPath134)"
               opacity="0.300003"
               id="g164"><g
                 transform="translate(200.9517,354.3818)"
                 id="g138"><path
                   d="m 0,0 c 0,-1.03 -0.835,-1.865 -1.865,-1.865 -1.03,0 -1.865,0.835 -1.865,1.865 0,1.03 0.835,1.865 1.865,1.865 C -0.835,1.865 0,1.03 0,0"
                   style="fill:#007cff;fill-opacity:1;fill-rule:nonzero;stroke:none"
                   id="path136" /></g><g
                 transform="translate(74.2888,283.8711)"
                 id="g142"><path
                   d="m 0,0 c 0,-0.73 -0.593,-1.323 -1.323,-1.323 -0.731,0 -1.323,0.593 -1.323,1.323 0,0.73 0.592,1.323 1.323,1.323 C -0.593,1.323 0,0.73 0,0"
                   style="fill:#007cff;fill-opacity:1;fill-rule:nonzero;stroke:none"
                   id="path140" /></g><g
                 transform="translate(292.9473,91.667)"
                 id="g146"><path
                   d="m 0,0 c 0,-1.046 -0.848,-1.894 -1.893,-1.894 -1.046,0 -1.894,0.848 -1.894,1.894 0,1.045 0.848,1.894 1.894,1.894 C -0.848,1.894 0,1.045 0,0"
                   style="fill:#007cff;fill-opacity:1;fill-rule:nonzero;stroke:none"
                   id="path144" /></g><g
                 transform="translate(337.8213,168)"
                 id="g150"><path
                   d="m 0,0 c 0,-0.73 -0.592,-1.323 -1.323,-1.323 -0.731,0 -1.323,0.593 -1.323,1.323 0,0.73 0.592,1.323 1.323,1.323 C -0.592,1.323 0,0.73 0,0"
                   style="fill:#007cff;fill-opacity:1;fill-rule:nonzero;stroke:none"
                   id="path148" /></g><g
                 transform="translate(424.1729,404.3818)"
                 id="g154"><path
                   d="m 0,0 c 0,-0.731 -0.592,-1.323 -1.323,-1.323 -0.731,0 -1.323,0.592 -1.323,1.323 0,0.73 0.592,1.322 1.323,1.322 C -0.592,1.322 0,0.73 0,0"
                   style="fill:#007cff;fill-opacity:1;fill-rule:nonzero;stroke:none"
                   id="path152" /></g><g
                 transform="translate(172.7539,431.0371)"
                 id="g158"><path
                   d="m 0,0 c 0,-0.73 -0.592,-1.323 -1.323,-1.323 -0.731,0 -1.323,0.593 -1.323,1.323 0,0.73 0.592,1.323 1.323,1.323 C -0.592,1.323 0,0.73 0,0"
                   style="fill:#007cff;fill-opacity:1;fill-rule:nonzero;stroke:none"
                   id="path156" /></g><g
                 transform="translate(279.0186,363.0566)"
                 id="g162"><path
                   d="m 0,0 c 0,-0.73 -0.592,-1.322 -1.323,-1.322 -0.731,0 -1.323,0.592 -1.323,1.322 0,0.731 0.592,1.323 1.323,1.323 C -0.592,1.323 0,0.731 0,0"
                   style="fill:#007cff;fill-opacity:1;fill-rule:nonzero;stroke:none"
                   id="path160" /></g></g></g></g><g
           id="g168"
           transform="translate(163.1433,383.6396)"><path
             d="m 0,0 c 0,-12.101 -9.809,-21.91 -21.91,-21.91 -12.1,0 -21.91,9.809 -21.91,21.91 0,12.101 9.81,21.91 21.91,21.91 C -9.809,21.91 0,12.101 0,0"
             style="fill:#007cff;fill-opacity:1;fill-rule:nonzero;stroke:none"
             id="path170" /></g><g
           id="g172"><g
             id="g174" /><g
             id="g186"><g
               clip-path="url(#clipPath178)"
               opacity="0.699997"
               id="g184"><g
                 transform="translate(163.1433,383.6396)"
                 id="g182"><path
                   d="m 0,0 c 0,-12.101 -9.809,-21.91 -21.91,-21.91 -12.1,0 -21.91,9.809 -21.91,21.91 0,12.101 9.81,21.91 21.91,21.91 C -9.809,21.91 0,12.101 0,0"
                   style="fill:#ffffff;fill-opacity:1;fill-rule:nonzero;stroke:none"
                   id="path180" /></g></g></g></g><g
           id="g188"><g
             id="g190" /><g
             id="g202"><g
               clip-path="url(#clipPath194)"
               opacity="0.199997"
               id="g200"><g
                 transform="translate(133.6824,400.1699)"
                 id="g198"><path
                   d="m 0,0 c -3.071,0 -5.986,-0.635 -8.641,-1.77 -3.55,-3.893 -5.715,-9.078 -5.715,-14.761 0,-12.098 9.807,-21.905 21.904,-21.905 3.081,0 6.017,0.635 8.682,1.781 v 0.009 c 3.53,3.894 5.685,9.058 5.685,14.732 C 21.915,-9.807 12.108,0 0,0"
                   style="fill:#007cff;fill-opacity:1;fill-rule:nonzero;stroke:none"
                   id="path196" /></g></g></g></g><g
           id="g204"><g
             id="g206" /><g
             id="g218"><g
               clip-path="url(#clipPath210)"
               opacity="0.199997"
               id="g216"><g
                 transform="translate(131.5042,394.377)"
                 id="g214"><path
                   d="m 0,0 c 0,-1.106 -0.897,-2.003 -2.003,-2.003 -1.106,0 -2.003,0.897 -2.003,2.003 0,1.106 0.897,2.003 2.003,2.003 C -0.897,2.003 0,1.106 0,0"
                   style="fill:#007cff;fill-opacity:1;fill-rule:nonzero;stroke:none"
                   id="path212" /></g></g></g></g><g
           id="g220"><g
             id="g222" /><g
             id="g234"><g
               clip-path="url(#clipPath226)"
               opacity="0.199997"
               id="g232"><g
                 transform="translate(155.0635,396.3799)"
                 id="g230"><path
                   d="m 0,0 c 0,-1.106 -0.896,-2.003 -2.003,-2.003 -1.106,0 -2.003,0.897 -2.003,2.003 0,1.106 0.897,2.003 2.003,2.003 C -0.896,2.003 0,1.106 0,0"
                   style="fill:#007cff;fill-opacity:1;fill-rule:nonzero;stroke:none"
                   id="path228" /></g></g></g></g><g
           id="g236"><g
             id="g238" /><g
             id="g250"><g
               clip-path="url(#clipPath242)"
               opacity="0.199997"
               id="g248"><g
                 transform="translate(151.0579,382.0986)"
                 id="g246"><path
                   d="m 0,0 c 0,-1.81 -1.467,-3.277 -3.278,-3.277 -1.81,0 -3.277,1.467 -3.277,3.277 0,1.811 1.467,3.278 3.277,3.278 C -1.467,3.278 0,1.811 0,0"
                   style="fill:#007cff;fill-opacity:1;fill-rule:nonzero;stroke:none"
                   id="path244" /></g></g></g></g><g
           id="g252"><g
             id="g254" /><g
             id="g266"><g
               clip-path="url(#clipPath258)"
               opacity="0.199997"
               id="g264"><g
                 transform="translate(140.6421,372.7539)"
                 id="g262"><path
                   d="m 0,0 c 0,-2.42 -1.962,-4.381 -4.381,-4.381 -2.42,0 -4.381,1.961 -4.381,4.381 0,2.42 1.961,4.381 4.381,4.381 C -1.962,4.381 0,2.42 0,0"
                   style="fill:#007cff;fill-opacity:1;fill-rule:nonzero;stroke:none"
                   id="path260" /></g></g></g></g><g
           id="g268"
           transform="translate(401.4229,123.751)"><path
             d="m 0,0 c 0,-10.618 -8.608,-19.226 -19.226,-19.226 -10.618,0 -19.226,8.608 -19.226,19.226 0,10.618 8.608,19.226 19.226,19.226 C -8.608,19.226 0,10.618 0,0"
             style="fill:#007cff;fill-opacity:1;fill-rule:nonzero;stroke:none"
             id="path270" /></g><g
           id="g272"><g
             id="g274" /><g
             id="g286"><g
               clip-path="url(#clipPath278)"
               opacity="0.300003"
               id="g284"><g
                 transform="translate(401.4229,123.751)"
                 id="g282"><path
                   d="m 0,0 c 0,-10.618 -8.608,-19.226 -19.226,-19.226 -10.618,0 -19.226,8.608 -19.226,19.226 0,10.618 8.608,19.226 19.226,19.226 C -8.608,19.226 0,10.618 0,0"
                   style="fill:#ffffff;fill-opacity:1;fill-rule:nonzero;stroke:none"
                   id="path280" /></g></g></g></g><g
           id="g288"><g
             id="g290" /><g
             id="g302"><g
               clip-path="url(#clipPath294)"
               opacity="0.399994"
               id="g300"><g
                 transform="translate(394.333,138.6611)"
                 id="g298"><path
                   d="m 0,0 c -1.749,0.53 -3.613,0.812 -5.538,0.812 -10.619,0 -19.229,-8.61 -19.229,-19.229 0,-6.018 2.759,-11.379 7.09,-14.908 1.749,-0.53 3.612,-0.812 5.538,-0.812 10.619,0 19.229,8.61 19.229,19.229 C 7.09,-8.891 4.331,-3.519 0,0"
                   style="fill:#007cff;fill-opacity:1;fill-rule:nonzero;stroke:none"
                   id="path296" /></g></g></g></g><g
           id="g304"
           transform="translate(363.8301,118.0527)"><path
             d="M 0,0 C -20.533,-9.663 -5.216,-17.109 23.712,-6.713 50.496,2.913 60.679,15.057 36.763,11.293 37.998,6.185 4.452,-6.887 0,0"
             style="fill:#007cff;fill-opacity:1;fill-rule:nonzero;stroke:none"
             id="path306" /></g></g></g><g
       id="g308"><g
         id="g310"
         clip-path="url(#clipPath314)"><g
           id="g316"><g
             id="g318" /><g
             id="g330"><g
               clip-path="url(#clipPath322)"
               opacity="0.199997"
               id="g328"><g
                 transform="translate(394.0972,312.1699)"
                 id="g326"><path
                   d="m 0,0 c -26.89,-18.17 -61.7,-42.13 -71.31,-99.81 h -2.05 c 9.35,56.98 42.89,81.571 69.79,99.81 z"
                   style="fill:#000000;fill-opacity:1;fill-rule:nonzero;stroke:none"
                   id="path324" /></g></g></g></g><g
           id="g332"
           transform="translate(255.0188,131.7334)"><path
             d="m 0,0 c -16.97,-0.001 -33.809,7.662 -41.986,20.187 -5.053,7.739 -10.92,23.95 6.555,45.578 l 1.556,-1.258 C -46.237,49.208 -48.523,33.856 -40.312,21.28 -30.317,5.972 -6.716,-1.726 13.419,3.752 34.047,9.365 46.571,27.309 47.78,52.98 c 4.135,87.807 50.784,114.855 84.846,134.605 21.162,12.27 36.452,21.136 33.092,39.838 -0.467,2.595 -1.501,4.388 -3.164,5.481 -4.353,2.868 -12.853,0.886 -22.694,-1.408 -19.306,-4.497 -45.746,-10.657 -61.497,16.134 l 1.724,1.014 c 15.006,-25.524 39.577,-19.8 59.319,-15.2 10.291,2.397 19.177,4.467 24.248,1.131 2.145,-1.412 3.463,-3.636 4.032,-6.799 3.609,-20.082 -13.013,-29.719 -34.057,-41.922 C 99.965,166.336 53.861,139.604 49.777,52.887 48.525,26.291 35.464,7.679 13.944,1.822 9.408,0.588 4.697,0.001 0,0"
             style="fill:#007cff;fill-opacity:1;fill-rule:nonzero;stroke:none"
             id="path334" /></g><g
           id="g336"><g
             id="g338" /><g
             id="g350"><g
               clip-path="url(#clipPath342)"
               opacity="0.199997"
               id="g348"><g
                 transform="translate(255.0188,131.7334)"
                 id="g346"><path
                   d="m 0,0 c -16.97,-0.001 -33.809,7.662 -41.986,20.187 -5.053,7.739 -10.92,23.95 6.555,45.578 l 1.556,-1.258 C -46.237,49.208 -48.523,33.856 -40.312,21.28 -30.317,5.972 -6.716,-1.726 13.419,3.752 34.047,9.365 46.571,27.309 47.78,52.98 c 4.135,87.807 50.784,114.855 84.846,134.605 21.162,12.27 36.452,21.136 33.092,39.838 -0.467,2.595 -1.501,4.388 -3.164,5.481 -4.353,2.868 -12.853,0.886 -22.694,-1.408 -19.306,-4.497 -45.746,-10.657 -61.497,16.134 l 1.724,1.014 c 15.006,-25.524 39.577,-19.8 59.319,-15.2 10.291,2.397 19.177,4.467 24.248,1.131 2.145,-1.412 3.463,-3.636 4.032,-6.799 3.609,-20.082 -13.013,-29.719 -34.057,-41.922 C 99.965,166.336 53.861,139.604 49.777,52.887 48.525,26.291 35.464,7.679 13.944,1.822 9.408,0.588 4.697,0.001 0,0"
                   style="fill:#ffffff;fill-opacity:1;fill-rule:nonzero;stroke:none"
                   id="path344" /></g></g></g></g><g
           id="g352"
           transform="translate(312.7578,403.0508)"><path
             d="m 0,0 c 6.855,0.125 13.582,-2.134 13.582,-2.134 0,0 10.965,-18.77 12.302,-23.066 -0.46,-4.24 -7.615,-11.192 -7.615,-11.192 z"
             style="fill:#007cff;fill-opacity:1;fill-rule:nonzero;stroke:none"
             id="path354" /></g><g
           id="g356"><g
             id="g358" /><g
             id="g370"><g
               clip-path="url(#clipPath362)"
               opacity="0.300003"
               id="g368"><g
                 transform="translate(312.7578,403.0508)"
                 id="g366"><path
                   d="m 0,0 c 6.855,0.125 13.582,-2.134 13.582,-2.134 0,0 10.965,-18.77 12.302,-23.066 -0.46,-4.24 -7.615,-11.192 -7.615,-11.192 z"
                   style="fill:#ffffff;fill-opacity:1;fill-rule:nonzero;stroke:none"
                   id="path364" /></g></g></g></g><g
           id="g372"
           transform="translate(345.3394,311.8672)"><path
             d="m 0,0 c -4.135,5.248 -8.197,10.595 -11.559,16.386 -0.841,1.447 -1.636,2.92 -2.389,4.415 -0.428,0.848 -0.842,1.705 -1.244,2.567 -0.351,0.752 -1.126,1.861 -1.204,2.684 -1.201,12.672 3.137,22 -1.028,32.172 l -16.471,-6.438 c 0,0 1.401,-18.122 4.598,-28.963 1.985,-6.725 6.475,-12.549 10.804,-17.937 1.354,-1.686 2.658,-3.41 4.01,-5.099 1.279,-1.598 2.711,-3.064 3.994,-4.653 1.947,-2.413 2.594,-4.717 1.115,-7.562 -0.08,-0.152 -0.162,-0.302 -0.247,-0.453 -0.42,-0.741 1.547,-1.581 2.781,-0.02 2.042,2.581 1.721,2.422 3.462,4.623 1.057,1.336 2.271,2.779 3.319,4.033 C 0.964,-3.022 0.987,-1.252 0,0"
             style="fill:#007cff;fill-opacity:1;fill-rule:nonzero;stroke:none"
             id="path374" /></g><g
           id="g376"><g
             id="g378" /><g
             id="g390"><g
               clip-path="url(#clipPath382)"
               opacity="0.699997"
               id="g388"><g
                 transform="translate(345.3394,311.8672)"
                 id="g386"><path
                   d="m 0,0 c -4.135,5.248 -8.197,10.595 -11.559,16.386 -0.841,1.447 -1.636,2.92 -2.389,4.415 -0.428,0.848 -0.842,1.705 -1.244,2.567 -0.351,0.752 -1.126,1.861 -1.204,2.684 -1.201,12.672 3.137,22 -1.028,32.172 l -16.471,-6.438 c 0,0 1.401,-18.122 4.598,-28.963 1.985,-6.725 6.475,-12.549 10.804,-17.937 1.354,-1.686 2.658,-3.41 4.01,-5.099 1.279,-1.598 2.711,-3.064 3.994,-4.653 1.947,-2.413 2.594,-4.717 1.115,-7.562 -0.08,-0.152 -0.162,-0.302 -0.247,-0.453 -0.42,-0.741 1.547,-1.581 2.781,-0.02 2.042,2.581 1.721,2.422 3.462,4.623 1.057,1.336 2.271,2.779 3.319,4.033 C 0.964,-3.022 0.987,-1.252 0,0"
                   style="fill:#ffffff;fill-opacity:1;fill-rule:nonzero;stroke:none"
                   id="path384" /></g></g></g></g><g
           id="g392"><g
             id="g394" /><g
             id="g406"><g
               clip-path="url(#clipPath398)"
               opacity="0.300003"
               id="g404"><g
                 transform="translate(341.3115,317.082)"
                 id="g402"><path
                   d="m 0,0 c -2.205,-2.666 -6.688,-6.122 -8.664,-7.523 0.429,-0.479 0.856,-0.968 1.283,-1.457 4.068,2.657 7.284,6.104 8.504,7.504 C 0.747,-0.991 0.373,-0.495 0,0"
                   style="fill:#007cff;fill-opacity:1;fill-rule:nonzero;stroke:none"
                   id="path400" /></g></g></g></g><g
           id="g408"><g
             id="g410" /><g
             id="g422"><g
               clip-path="url(#clipPath414)"
               opacity="0.300003"
               id="g420"><g
                 transform="translate(345.3352,311.8652)"
                 id="g418"><path
                   d="m 0,0 c -0.038,0.052 -0.078,0.094 -0.116,0.146 -0.694,-0.724 -1.183,-1.876 -1.265,-3.17 -0.066,-0.894 0.085,-1.712 0.378,-2.351 0.332,0.386 0.643,0.768 0.949,1.13 C 0.972,-3.021 0.986,-1.253 0,0"
                   style="fill:#007cff;fill-opacity:1;fill-rule:nonzero;stroke:none"
                   id="path416" /></g></g></g></g><g
           id="g424"
           transform="translate(308.8423,391.0488)"><path
             d="m 0,0 c -1.723,-2.505 -3.754,-4.976 -6.375,-7.193 -1.302,-1.116 -2.786,-2.124 -4.417,-2.98 -0.824,-0.42 -1.688,-0.784 -2.583,-1.085 l -0.675,-0.217 -0.218,-0.068 c -0.158,-0.048 -0.317,-0.091 -0.477,-0.129 -0.302,-0.068 -0.605,-0.115 -0.873,-0.137 -1.083,-0.082 -1.867,0.073 -2.514,0.234 -1.277,0.347 -2.13,0.812 -2.937,1.263 -0.796,0.458 -1.493,0.929 -2.154,1.415 -1.302,0.991 -2.48,1.985 -3.578,3.047 -2.211,2.111 -4.17,4.299 -5.99,6.737 -0.83,1.11 -0.602,2.683 0.509,3.512 0.857,0.641 1.99,0.651 2.843,0.113 l 0.076,-0.05 c 2.36,-1.498 4.741,-3.078 7.064,-4.492 1.174,-0.692 2.32,-1.388 3.446,-1.929 0.554,-0.28 1.097,-0.535 1.587,-0.717 0.477,-0.185 0.953,-0.292 1.077,-0.266 0.052,0.003 -0.01,0.073 -0.378,0.06 -0.089,-0.005 -0.215,-0.016 -0.343,-0.045 -0.074,-0.014 -0.147,-0.032 -0.218,-0.055 -0.069,-0.023 0.029,0.018 0.035,0.024 l 0.33,0.17 c 0.441,0.225 0.863,0.504 1.29,0.788 0.856,0.579 1.671,1.315 2.502,2.12 1.646,1.636 3.23,3.671 4.902,5.787 l 0.023,0.029 c 1.712,2.168 4.858,2.537 7.025,0.825 C 1.056,5.12 1.472,2.151 0,0"
             style="fill:#007cff;fill-opacity:1;fill-rule:nonzero;stroke:none"
             id="path426" /></g><g
           id="g428"><g
             id="g430" /><g
             id="g442"><g
               clip-path="url(#clipPath434)"
               opacity="0.699997"
               id="g440"><g
                 transform="translate(308.8423,391.0488)"
                 id="g438"><path
                   d="m 0,0 c -1.723,-2.505 -3.754,-4.976 -6.375,-7.193 -1.302,-1.116 -2.786,-2.124 -4.417,-2.98 -0.824,-0.42 -1.688,-0.784 -2.583,-1.085 l -0.675,-0.217 -0.218,-0.068 c -0.158,-0.048 -0.317,-0.091 -0.477,-0.129 -0.302,-0.068 -0.605,-0.115 -0.873,-0.137 -1.083,-0.082 -1.867,0.073 -2.514,0.234 -1.277,0.347 -2.13,0.812 -2.937,1.263 -0.796,0.458 -1.493,0.929 -2.154,1.415 -1.302,0.991 -2.48,1.985 -3.578,3.047 -2.211,2.111 -4.17,4.299 -5.99,6.737 -0.83,1.11 -0.602,2.683 0.509,3.512 0.857,0.641 1.99,0.651 2.843,0.113 l 0.076,-0.05 c 2.36,-1.498 4.741,-3.078 7.064,-4.492 1.174,-0.692 2.32,-1.388 3.446,-1.929 0.554,-0.28 1.097,-0.535 1.587,-0.717 0.477,-0.185 0.953,-0.292 1.077,-0.266 0.052,0.003 -0.01,0.073 -0.378,0.06 -0.089,-0.005 -0.215,-0.016 -0.343,-0.045 -0.074,-0.014 -0.147,-0.032 -0.218,-0.055 -0.069,-0.023 0.029,0.018 0.035,0.024 l 0.33,0.17 c 0.441,0.225 0.863,0.504 1.29,0.788 0.856,0.579 1.671,1.315 2.502,2.12 1.646,1.636 3.23,3.671 4.902,5.787 l 0.023,0.029 c 1.712,2.168 4.858,2.537 7.025,0.825 C 1.056,5.12 1.472,2.151 0,0"
                   style="fill:#ffffff;fill-opacity:1;fill-rule:nonzero;stroke:none"
                   id="path436" /></g></g></g></g><g
           id="g444"
           transform="translate(272.2852,397.584)"><path
             d="m 0,0 1.172,-1.966 c 0,0 0.895,-2.616 2.686,-3.099 l 4.854,1.572 -0.243,0.408 C 8.471,-3.086 8.474,-3.086 8.476,-3.087 7.854,-2.14 7.921,-0.313 8.139,1.205 8.358,2.724 7.57,2.778 6.988,2.4 6.651,2.183 6.414,1.489 6.141,0.742 5.902,1.071 5.646,1.389 5.357,1.676 L 3.874,3.153 C 3.234,3.79 2.209,3.819 1.534,3.219 L 0.332,2.15 C -0.28,1.606 -0.42,0.704 0,0"
             style="fill:#007cff;fill-opacity:1;fill-rule:nonzero;stroke:none"
             id="path446" /></g><g
           id="g448"><g
             id="g450" /><g
             id="g462"><g
               clip-path="url(#clipPath454)"
               opacity="0.699997"
               id="g460"><g
                 transform="translate(272.2852,397.584)"
                 id="g458"><path
                   d="m 0,0 1.172,-1.966 c 0,0 0.895,-2.616 2.686,-3.099 l 4.854,1.572 -0.243,0.408 C 8.471,-3.086 8.474,-3.086 8.476,-3.087 7.854,-2.14 7.921,-0.313 8.139,1.205 8.358,2.724 7.57,2.778 6.988,2.4 6.651,2.183 6.414,1.489 6.141,0.742 5.902,1.071 5.646,1.389 5.357,1.676 L 3.874,3.153 C 3.234,3.79 2.209,3.819 1.534,3.219 L 0.332,2.15 C -0.28,1.606 -0.42,0.704 0,0"
                   style="fill:#ffffff;fill-opacity:1;fill-rule:nonzero;stroke:none"
                   id="path456" /></g></g></g></g><g
           id="g464"
           transform="translate(317.6743,404.7754)"><path
             d="m 0,0 c -4.649,-1.128 -11.036,-3.78 -15.349,-6.468 -1.529,-0.952 -2.292,-2.76 -1.932,-4.524 1.924,-9.44 6.314,-22.085 11.053,-30.129 l 22.112,9.146 C 16.036,-28.074 10.667,-15.454 5.2,-3.257 4.217,-1.063 2.336,0.567 0,0"
             style="fill:#007cff;fill-opacity:1;fill-rule:nonzero;stroke:none"
             id="path466" /></g><g
           id="g468"><g
             id="g470" /><g
             id="g482"><g
               clip-path="url(#clipPath474)"
               opacity="0.800003"
               id="g480"><g
                 transform="translate(317.6743,404.7754)"
                 id="g478"><path
                   d="m 0,0 c -4.649,-1.128 -11.036,-3.78 -15.349,-6.468 -1.529,-0.952 -2.292,-2.76 -1.932,-4.524 1.924,-9.44 6.314,-22.085 11.053,-30.129 l 22.112,9.146 C 16.036,-28.074 10.667,-15.454 5.2,-3.257 4.217,-1.063 2.336,0.567 0,0"
                   style="fill:#ffffff;fill-opacity:1;fill-rule:nonzero;stroke:none"
                   id="path476" /></g></g></g></g><g
           id="g484"><g
             id="g486" /><g
             id="g498"><g
               clip-path="url(#clipPath490)"
               opacity="0.300003"
               id="g496"><g
                 transform="translate(326.2964,393.7861)"
                 id="g494"><path
                   d="M 0,0 -4.388,1.472 C -3.406,-1.096 0.145,-4.35 2.642,-6.261 1.819,-4.255 0.927,-2.158 0,0"
                   style="fill:#007cff;fill-opacity:1;fill-rule:nonzero;stroke:none"
                   id="path492" /></g></g></g></g><g
           id="g500"
           transform="translate(316.2173,414.6797)"><path
             d="m 0,0 c -1.825,3.48 -5.774,5.233 -10.516,4.838 -3.999,-0.334 -7.544,-4.416 -7.124,-6.622 0.42,-2.206 3.785,-3.14 4.395,-3.906 l -2.773,-2.01 c -1.38,-1.001 -1.65,-2.947 -0.596,-4.287 1.167,-1.483 2.704,-3.031 3.598,-4.123 7.664,0.199 13.332,3.122 15.374,5.935 C 1.624,-6.596 1.815,-3.462 0,0"
             style="fill:#007cff;fill-opacity:1;fill-rule:nonzero;stroke:none"
             id="path502" /></g><g
           id="g504"><g
             id="g506" /><g
             id="g518"><g
               clip-path="url(#clipPath510)"
               opacity="0.800003"
               id="g516"><g
                 transform="translate(316.2173,414.6797)"
                 id="g514"><path
                   d="m 0,0 c -1.825,3.48 -5.774,5.233 -10.516,4.838 -3.999,-0.334 -7.544,-4.416 -7.124,-6.622 0.42,-2.206 3.785,-3.14 4.395,-3.906 l -2.773,-2.01 c -1.38,-1.001 -1.65,-2.947 -0.596,-4.287 1.167,-1.483 2.704,-3.031 3.598,-4.123 7.664,0.199 13.332,3.122 15.374,5.935 C 1.624,-6.596 1.815,-3.462 0,0"
                   style="fill:#ffffff;fill-opacity:1;fill-rule:nonzero;stroke:none"
                   id="path512" /></g></g></g></g><g
           id="g520"
           transform="translate(312.4604,412.5244)"><path
             d="m 0,0 c 1.522,-3.896 -0.401,-8.288 -4.297,-9.811 -3.895,-1.522 -8.287,0.402 -9.81,4.297 -1.522,3.896 0.401,8.287 4.297,9.81 C -5.915,5.818 -1.522,3.895 0,0"
             style="fill:#1a2e35;fill-opacity:1;fill-rule:nonzero;stroke:none"
             id="path522" /></g><g
           id="g524"
           transform="translate(377.3882,322.4033)"><path
             d="m 0,0 c -0.112,3.289 -0.254,2.96 -0.349,5.765 -0.057,1.703 -0.065,3.589 -0.076,5.222 -0.011,1.595 -1.138,2.96 -2.7,3.277 -1.326,0.269 -2.655,0.525 -3.977,0.806 -1.726,0.368 -3.432,0.765 -5.127,1.257 -1.315,0.382 -2.617,0.803 -3.905,1.268 -1.379,0.497 -2.741,1.041 -4.089,1.619 -1.576,0.676 -3.132,1.396 -4.678,2.138 -1.725,0.828 -3.437,1.683 -5.143,2.55 -6.582,10.896 -6.723,18.075 -13.786,26.495 L -58.99,43.54 c 0,0 11.139,-19.765 18.725,-28.144 4.366,-4.824 11.218,-6.998 17.327,-8.576 4.408,-1.137 8.878,-2.008 13.354,-2.831 1.739,-0.319 3.631,-0.443 5.127,-1.481 1.179,-0.819 1.789,-2.095 2.138,-3.452 0.071,-0.278 0.131,-0.557 0.184,-0.838 C -1.976,-2.62 0.068,-1.988 0,0"
             style="fill:#007cff;fill-opacity:1;fill-rule:nonzero;stroke:none"
             id="path526" /></g><g
           id="g528"><g
             id="g530" /><g
             id="g542"><g
               clip-path="url(#clipPath534)"
               opacity="0.800003"
               id="g540"><g
                 transform="translate(377.3882,322.4033)"
                 id="g538"><path
                   d="m 0,0 c -0.112,3.289 -0.254,2.96 -0.349,5.765 -0.057,1.703 -0.065,3.589 -0.076,5.222 -0.011,1.595 -1.138,2.96 -2.7,3.277 -1.326,0.269 -2.655,0.525 -3.977,0.806 -1.726,0.368 -3.432,0.765 -5.127,1.257 -1.315,0.382 -2.617,0.803 -3.905,1.268 -1.379,0.497 -2.741,1.041 -4.089,1.619 -1.576,0.676 -3.132,1.396 -4.678,2.138 -1.725,0.828 -3.437,1.683 -5.143,2.55 -6.582,10.896 -6.723,18.075 -13.786,26.495 L -58.99,43.54 c 0,0 11.139,-19.765 18.725,-28.144 4.366,-4.824 11.218,-6.998 17.327,-8.576 4.408,-1.137 8.878,-2.008 13.354,-2.831 1.739,-0.319 3.631,-0.443 5.127,-1.481 1.179,-0.819 1.789,-2.095 2.138,-3.452 0.071,-0.278 0.131,-0.557 0.184,-0.838 C -1.976,-2.62 0.068,-1.988 0,0"
                   style="fill:#ffffff;fill-opacity:1;fill-rule:nonzero;stroke:none"
                   id="path536" /></g></g></g></g><g
           id="g544"><g
             id="g546" /><g
             id="g558"><g
               clip-path="url(#clipPath550)"
               opacity="0.300003"
               id="g556"><g
                 transform="translate(369.7,337.5996)"
                 id="g554"><path
                   d="m 0,0 c -0.596,0.131 -1.203,0.265 -1.806,0.407 0.047,-3.452 -1.573,-9.417 -2.167,-11.224 0.63,-0.119 1.271,-0.242 1.901,-0.361 C -0.316,-6.432 -0.04,-1.408 0,0"
                   style="fill:#007cff;fill-opacity:1;fill-rule:nonzero;stroke:none"
                   id="path552" /></g></g></g></g><g
           id="g560"><g
             id="g562" /><g
             id="g574"><g
               clip-path="url(#clipPath566)"
               opacity="0.300003"
               id="g572"><g
                 transform="translate(376.9607,333.3906)"
                 id="g570"><path
                   d="m 0,0 c -0.011,1.599 -1.134,2.96 -2.695,3.28 -0.314,0.065 -0.637,0.132 -0.954,0.187 0.066,-0.941 0.65,-2.031 1.628,-2.898 0.64,-0.578 1.365,-0.962 2.031,-1.142 C 0.002,-0.374 0.001,-0.187 0,0"
                   style="fill:#007cff;fill-opacity:1;fill-rule:nonzero;stroke:none"
                   id="path568" /></g></g></g></g><g
           id="g576"
           transform="translate(311.0457,412.46)"><path
             d="m 0,0 c 0.405,-1.517 -1.292,-3.11 -2.65,-1.799 -1.102,1.065 -2.763,2.846 -4.117,3.693 -1.392,0.871 0.464,2.387 2.651,1.798 C -2.076,3.144 -0.405,1.517 0,0"
             style="fill:#ffffff;fill-opacity:1;fill-rule:nonzero;stroke:none"
             id="path578" /></g><g
           id="g580"
           transform="translate(311.1609,364.1406)"><path
             d="m 0,0 c -0.705,-0.26 0.583,-1.457 0.583,-1.457 0,0 13.97,4.788 22.495,9.717 C 23.15,9.29 22.4,9.838 22.4,9.838 22.4,9.838 12.028,4.434 0,0"
             style="fill:#007cff;fill-opacity:1;fill-rule:nonzero;stroke:none"
             id="path582" /></g><g
           id="g584"><g
             id="g586" /><g
             id="g598"><g
               clip-path="url(#clipPath590)"
               opacity="0.5"
               id="g596"><g
                 transform="translate(311.1609,364.1406)"
                 id="g594"><path
                   d="m 0,0 c -0.705,-0.26 0.583,-1.457 0.583,-1.457 0,0 13.97,4.788 22.495,9.717 C 23.15,9.29 22.4,9.838 22.4,9.838 22.4,9.838 12.028,4.434 0,0"
                   style="fill:#ffffff;fill-opacity:1;fill-rule:nonzero;stroke:none"
                   id="path592" /></g></g></g></g><g
           id="g600"
           transform="translate(321.4604,405.4375)"><path
             d="m 0,0 c 2.758,-1.393 5.354,-2.868 7.947,-4.501 1.291,-0.812 2.575,-1.647 3.842,-2.548 1.276,-0.883 2.535,-1.815 3.798,-2.862 l 0.475,-0.388 0.59,-0.533 c 0.42,-0.37 0.728,-0.712 1.037,-1.052 0.324,-0.351 0.591,-0.689 0.854,-1.026 0.272,-0.338 0.532,-0.675 0.765,-1.008 0.989,-1.327 1.796,-2.679 2.586,-4.019 1.537,-2.716 2.868,-5.429 3.966,-8.348 0.49,-1.302 -0.169,-2.755 -1.471,-3.245 -0.978,-0.367 -2.041,-0.088 -2.718,0.627 l -0.049,0.052 c -2.009,2.128 -3.936,4.373 -5.875,6.458 -1.897,2.08 -3.912,4.214 -5.537,5.142 -2.27,1.416 -4.798,2.822 -7.31,4.207 l -7.562,4.197 -0.019,0.011 c -2.415,1.34 -3.286,4.384 -1.945,6.798 C -5.32,0.317 -2.384,1.199 0,0"
             style="fill:#007cff;fill-opacity:1;fill-rule:nonzero;stroke:none"
             id="path602" /></g><g
           id="g604"><g
             id="g606" /><g
             id="g618"><g
               clip-path="url(#clipPath610)"
               opacity="0.800003"
               id="g616"><g
                 transform="translate(321.4604,405.4375)"
                 id="g614"><path
                   d="m 0,0 c 2.758,-1.393 5.354,-2.868 7.947,-4.501 1.291,-0.812 2.575,-1.647 3.842,-2.548 1.276,-0.883 2.535,-1.815 3.798,-2.862 l 0.475,-0.388 0.59,-0.533 c 0.42,-0.37 0.728,-0.712 1.037,-1.052 0.324,-0.351 0.591,-0.689 0.854,-1.026 0.272,-0.338 0.532,-0.675 0.765,-1.008 0.989,-1.327 1.796,-2.679 2.586,-4.019 1.537,-2.716 2.868,-5.429 3.966,-8.348 0.49,-1.302 -0.169,-2.755 -1.471,-3.245 -0.978,-0.367 -2.041,-0.088 -2.718,0.627 l -0.049,0.052 c -2.009,2.128 -3.936,4.373 -5.875,6.458 -1.897,2.08 -3.912,4.214 -5.537,5.142 -2.27,1.416 -4.798,2.822 -7.31,4.207 l -7.562,4.197 -0.019,0.011 c -2.415,1.34 -3.286,4.384 -1.945,6.798 C -5.32,0.317 -2.384,1.199 0,0"
                   style="fill:#ffffff;fill-opacity:1;fill-rule:nonzero;stroke:none"
                   id="path612" /></g></g></g></g><g
           id="g620"
           transform="translate(349.7334,374.2617)"><path
             d="m 0,0 -0.849,2.126 c 0,0 -0.474,2.724 -2.167,3.482 l -5.04,-0.793 0.175,-0.44 c -0.002,0.001 -0.004,0.002 -0.006,0.002 0.466,-1.032 0.113,-2.825 -0.341,-4.291 -0.453,-1.466 0.317,-1.644 0.95,-1.361 0.367,0.163 0.71,0.81 1.097,1.505 0.184,-0.363 0.387,-0.715 0.628,-1.045 l 1.233,-1.692 c 0.532,-0.729 1.54,-0.919 2.3,-0.431 l 1.355,0.867 C 0.025,-1.63 0.304,-0.761 0,0"
             style="fill:#007cff;fill-opacity:1;fill-rule:nonzero;stroke:none"
             id="path622" /></g><g
           id="g624"><g
             id="g626" /><g
             id="g638"><g
               clip-path="url(#clipPath630)"
               opacity="0.800003"
               id="g636"><g
                 transform="translate(349.7334,374.2617)"
                 id="g634"><path
                   d="m 0,0 -0.849,2.126 c 0,0 -0.474,2.724 -2.167,3.482 l -5.04,-0.793 0.175,-0.44 c -0.002,0.001 -0.004,0.002 -0.006,0.002 0.466,-1.032 0.113,-2.825 -0.341,-4.291 -0.453,-1.466 0.317,-1.644 0.95,-1.361 0.367,0.163 0.71,0.81 1.097,1.505 0.184,-0.363 0.387,-0.715 0.628,-1.045 l 1.233,-1.692 c 0.532,-0.729 1.54,-0.919 2.3,-0.431 l 1.355,0.867 C 0.025,-1.63 0.304,-0.761 0,0"
                   style="fill:#ffffff;fill-opacity:1;fill-rule:nonzero;stroke:none"
                   id="path632" /></g></g></g></g><g
           id="g640"><g
             id="g642" /><g
             id="g654"><g
               clip-path="url(#clipPath646)"
               opacity="0.300003"
               id="g652"><g
                 transform="translate(317.2361,393.9434)"
                 id="g650"><path
                   d="m 0,0 -1.219,-0.1 -7.485,-18.084 c 0.441,-0.029 0.845,0.008 1.219,0.1 0,0 9.76,3.638 12.714,4.971 C 3.24,-8.994 0,0 0,0"
                   style="fill:#007cff;fill-opacity:1;fill-rule:nonzero;stroke:none"
                   id="path648" /></g></g></g></g><g
           id="g656"
           transform="translate(303.5676,389.1982)"><path
             d="m 0,0 c 0.417,-3.257 2.859,-10.179 4.965,-13.438 3.655,1.26 9.76,3.637 12.714,4.97 C 15.69,-4.349 13.595,1.327 12.45,4.646 9.301,4.436 2.439,1.851 0,0"
             style="fill:#ffffff;fill-opacity:1;fill-rule:nonzero;stroke:none"
             id="path658" /></g><g
           id="g660"><g
             id="g662" /><g
             id="g674"><g
               clip-path="url(#clipPath666)"
               opacity="0.300003"
               id="g672"><g
                 transform="translate(311,385.2871)"
                 id="g670"><path
                   d="m 0,0 c -0.408,-1.364 -1.846,-2.14 -3.21,-1.731 -1.365,0.408 -2.14,1.845 -1.732,3.21 0.409,1.365 1.846,2.14 3.211,1.732 C -0.367,2.802 0.408,1.364 0,0"
                   style="fill:#007cff;fill-opacity:1;fill-rule:nonzero;stroke:none"
                   id="path668" /></g></g></g></g><g
           id="g676"><g
             id="g678" /><g
             id="g690"><g
               clip-path="url(#clipPath682)"
               opacity="0.600006"
               id="g688"><g
                 transform="translate(312.9133,388.7324)"
                 id="g686"><path
                   d="m 0,0 c -0.134,-0.447 -0.605,-0.701 -1.052,-0.567 -0.447,0.133 -0.701,0.604 -0.568,1.051 0.134,0.448 0.605,0.702 1.053,0.568 C -0.12,0.918 0.134,0.447 0,0"
                   style="fill:#007cff;fill-opacity:1;fill-rule:nonzero;stroke:none"
                   id="path684" /></g></g></g></g><g
           id="g692"><g
             id="g694" /><g
             id="g706"><g
               clip-path="url(#clipPath698)"
               opacity="0.600006"
               id="g704"><g
                 transform="translate(315.145,389.6016)"
                 id="g702"><path
                   d="m 0,0 c -0.134,-0.447 -0.605,-0.702 -1.052,-0.567 -0.447,0.133 -0.701,0.604 -0.568,1.051 0.134,0.448 0.606,0.702 1.053,0.568 C -0.12,0.918 0.134,0.447 0,0"
                   style="fill:#007cff;fill-opacity:1;fill-rule:nonzero;stroke:none"
                   id="path700" /></g></g></g></g><g
           id="g708"><g
             id="g710" /><g
             id="g722"><g
               clip-path="url(#clipPath714)"
               opacity="0.5"
               id="g720"><g
                 transform="translate(318.291,381.8135)"
                 id="g718"><path
                   d="m 0,0 -9.247,-3.654 -0.559,1.818 9.247,3.654 z"
                   style="fill:#007cff;fill-opacity:1;fill-rule:nonzero;stroke:none"
                   id="path716" /></g></g></g></g></g></g><g
       id="g724"><g
         id="g726"
         clip-path="url(#clipPath730)"><g
           id="g732"><g
             id="g734" /><g
             id="g746"><g
               clip-path="url(#clipPath738)"
               opacity="0.199997"
               id="g744"><g
                 transform="translate(267.2573,242.8301)"
                 id="g742"><path
                   d="m 0,0 c -0.2,-7.54 -0.76,-13.33 -1.68,-17.35 -1.18,-5.14 -3.01,-8.9 -5.5,-11.28 -2.48,-2.381 -5.42,-3.57 -8.81,-3.57 -5.14,0 -9.07,2.801 -11.77,8.41 -0.44,0.91 -0.84,1.95 -1.21,3.109 C -34.68,-25.59 -40,-30.95 -44.89,-36.71 l -5.31,-6.26 c 2.87,-2.91 6.13,-5.3 9.77,-7.19 6.23,-3.22 14.4,-4.84 24.52,-4.84 1.78,0 3.5,0.05 5.17,0.15 6.12,9.06 11.19,18.8 15.1,29.02 l 14.85,38.72 z"
                   style="fill:#000000;fill-opacity:1;fill-rule:nonzero;stroke:none"
                   id="path740" /></g></g></g></g><g
           id="g748"
           transform="translate(133.3882,190.042)"><path
             d="m 0,0 c 5.597,-5.597 17.502,-17.502 17.502,-17.502 l 49.01,46.168 C 49.647,35.077 16.771,16.771 0,0"
             style="fill:#1a2e35;fill-opacity:1;fill-rule:nonzero;stroke:none"
             id="path750" /></g><g
           id="g752"
           transform="translate(194.4221,129.0078)"><path
             d="M 0,0 C -5.597,5.598 -17.502,17.502 -17.502,17.502 L 28.666,66.513 C 35.077,49.647 16.771,16.771 0,0"
             style="fill:#1a2e35;fill-opacity:1;fill-rule:nonzero;stroke:none"
             id="path754" /></g><g
           id="g756"
           transform="translate(261.3987,239.3008)"><path
             d="M 0,0 19.091,36.809 -17.717,17.718 C -29.543,11.584 -40.462,3.841 -50.162,-5.29 l -62.747,-59.07 30.831,-30.831 59.07,62.747 C -13.876,-22.744 -6.134,-11.825 0,0"
             style="fill:#007cff;fill-opacity:1;fill-rule:nonzero;stroke:none"
             id="path758" /></g><g
           id="g760"><g
             id="g762" /><g
             id="g774"><g
               clip-path="url(#clipPath766)"
               opacity="0.600006"
               id="g772"><g
                 transform="translate(261.3987,239.3008)"
                 id="g770"><path
                   d="M 0,0 19.091,36.809 -17.717,17.718 C -29.543,11.584 -40.462,3.841 -50.162,-5.29 l -62.747,-59.07 30.831,-30.831 59.07,62.747 C -13.876,-22.744 -6.134,-11.825 0,0"
                   style="fill:#ffffff;fill-opacity:1;fill-rule:nonzero;stroke:none"
                   id="path768" /></g></g></g></g><g
           id="g776"
           transform="translate(231.3186,208.6963)"><path
             d="m 0,0 c -5.037,-5.037 -13.205,-5.037 -18.242,0 -5.038,5.037 -5.038,13.205 0,18.242 5.037,5.037 13.205,5.037 18.242,0 C 5.037,13.205 5.037,5.037 0,0"
             style="fill:#ffffff;fill-opacity:1;fill-rule:nonzero;stroke:none"
             id="path778" /></g><g
           id="g780"
           transform="translate(228.0559,211.959)"><path
             d="m 0,0 c -3.236,-3.235 -8.481,-3.235 -11.717,0 -3.235,3.235 -3.235,8.481 0,11.717 3.236,3.235 8.481,3.235 11.717,0 C 3.236,8.481 3.236,3.235 0,0"
             style="fill:#007cff;fill-opacity:1;fill-rule:nonzero;stroke:none"
             id="path782" /></g><g
           id="g784"><g
             id="g786" /><g
             id="g798"><g
               clip-path="url(#clipPath790)"
               opacity="0.300003"
               id="g796"><g
                 transform="translate(189.7456,155.1836)"
                 id="g794"><path
                   d="M 0,0 -30.181,30.182 -5.47,53.445 23.263,24.712 Z"
                   style="fill:#007cff;fill-opacity:1;fill-rule:nonzero;stroke:none"
                   id="path792" /></g></g></g></g><g
           id="g800"
           transform="translate(140.22,162.3838)"><path
             d="m 0,0 c -22.605,-1.839 -30.094,-16.306 -32.647,-35.539 -1.302,-9.809 -1.88,-19.732 -10.116,-25.475 -2.286,-1.593 -1.151,-5.146 1.634,-5.059 30.339,0.947 44.49,15.803 46.267,22.024 -0.611,-3.932 -1.503,-7.035 -2.492,-9.474 -1.015,-2.507 1.738,-4.828 4.03,-3.392 8.517,5.336 19.198,15.155 19.908,31.078 C 20.287,-16.986 0,0 0,0"
             style="fill:#007cff;fill-opacity:1;fill-rule:nonzero;stroke:none"
             id="path802" /></g><g
           id="g804"><g
             id="g806" /><g
             id="g818"><g
               clip-path="url(#clipPath810)"
               opacity="0.199997"
               id="g816"><g
                 transform="translate(140.22,162.3838)"
                 id="g814"><path
                   d="m 0,0 c -22.605,-1.839 -30.094,-16.306 -32.647,-35.539 -1.302,-9.809 -1.88,-19.732 -10.116,-25.475 -2.286,-1.593 -1.151,-5.146 1.634,-5.059 30.339,0.947 44.49,15.803 46.267,22.024 -0.611,-3.932 -1.503,-7.035 -2.492,-9.474 -1.015,-2.507 1.738,-4.828 4.03,-3.392 8.517,5.336 19.198,15.155 19.908,31.078 C 20.287,-16.986 0,0 0,0"
                   style="fill:#ffffff;fill-opacity:1;fill-rule:nonzero;stroke:none"
                   id="path812" /></g></g></g></g><g
           id="g820"
           transform="translate(170.2759,129.7002)"><path
             d="M 0,0 -36.196,36.195 -16.913,40.367 4.172,19.282 Z"
             style="fill:#007cff;fill-opacity:1;fill-rule:nonzero;stroke:none"
             id="path822" /></g></g></g></g></svg>
